<svg width="40" height="40" viewBox="0 0 40 40" fill="none" xmlns="http://www.w3.org/2000/svg">
<g clip-path="url(#clip0)">
<path d="M8.2506 19.846C8.2506 15.2601 8.21743 10.6741 8.23401 6.08813C8.23401 6.25018 10.5226 6.6391 10.7547 6.67151C11.5673 6.80115 12.3965 6.86597 13.2423 6.83356C14.8343 6.81735 16.4927 6.37982 17.7863 5.43994C18.035 5.24548 20.2572 3.67361 19.9421 3.33331C20.7547 4.24078 21.3683 5.03482 22.4795 5.61819C24.37 6.60669 26.6254 6.83356 28.7481 6.60669C28.7481 6.60669 28.7647 6.60669 28.7813 6.60669C29.1295 6.57428 31.7332 6.28259 31.7332 6.08813C31.7332 6.28259 31.7332 20.9966 31.7332 20.9966C31.5508 22.3092 30.8211 23.6866 29.8426 25.064C28.8974 26.3928 27.5541 27.7864 25.8957 29.18C23.5574 31.1894 21.3518 32.5182 21.2523 32.583L19.9256 33.3447L18.6154 32.5506C18.5159 32.502 16.3269 31.1408 13.9886 29.1476C12.3634 27.7378 11.0533 26.3766 10.108 25.0316C9.09637 23.6218 8.43302 22.2605 8.23401 20.9318C8.2506 20.5752 8.2506 20.2187 8.2506 19.846Z" fill="#4F4F4F"/>
<path d="M24.2208 22.6657L19.9919 19.6192L15.7465 22.6657L17.3551 17.707L13.1262 14.6443H18.3833L19.9919 9.73422L21.5839 14.6767H26.841L22.6121 17.7556L24.2208 22.6657Z" fill="white"/>
<path d="M4.73483 28.6615C4.88408 28.6291 4.98359 28.5966 5.09967 28.5966C5.96203 28.4994 6.77463 28.6939 7.50432 29.1314C7.7199 29.261 7.91891 29.4069 8.1345 29.5527C8.18425 29.5851 8.21742 29.6175 8.28375 29.6175C8.234 29.5527 8.18425 29.4717 8.1345 29.4069C7.75307 28.9207 7.38823 28.4184 7.05656 27.8998C7.03997 27.8836 7.02339 27.8674 7.02339 27.8512C6.97364 27.754 6.9073 27.7378 6.8078 27.754C6.59221 27.7864 6.37662 27.8188 6.16103 27.8188C5.56402 27.835 5.03334 27.6244 4.55241 27.2678C4.02173 26.8789 3.60714 26.3766 3.29204 25.8094C3.32521 25.7284 3.39155 25.7284 3.4413 25.7284C3.80614 25.7122 4.17098 25.7608 4.53583 25.858C5.29868 26.0849 5.89569 26.5386 6.45954 27.0734C6.50929 27.122 6.55904 27.1706 6.64196 27.2192C6.62538 27.1868 6.62538 27.1544 6.60879 27.122C6.27712 26.5386 5.96203 25.9391 5.69669 25.3071C5.63035 25.1774 5.63035 25.1612 5.46452 25.1774C4.95042 25.2098 4.46949 25.1126 4.02173 24.8857C3.6403 24.7075 3.32521 24.432 3.05987 24.1079C2.77795 23.7514 2.54578 23.3625 2.36335 22.9574C2.33019 22.8925 2.33019 22.8115 2.29702 22.7143C2.36335 22.7143 2.41311 22.6981 2.46286 22.7143C2.76136 22.7467 3.04329 22.8277 3.32521 22.9412C3.73981 23.1194 4.10465 23.3463 4.43632 23.6542C4.73483 23.9459 5.04992 24.2213 5.28209 24.5778C5.29868 24.594 5.31526 24.6103 5.33185 24.6265C5.34843 24.6427 5.36501 24.6589 5.41476 24.7075C5.33185 24.4644 5.24893 24.2537 5.18259 24.0431C5.03334 23.5893 4.90067 23.1356 4.768 22.6819C4.73483 22.6009 4.71825 22.5036 4.70166 22.4064C4.68508 22.3254 4.63533 22.2768 4.55241 22.2768C4.23732 22.2606 3.95539 22.1471 3.67347 22.0175C3.27546 21.8392 2.94379 21.58 2.66186 21.2397C2.23068 20.6887 1.94876 20.0729 1.79951 19.3923C1.76634 19.3275 1.76634 19.2789 1.74976 19.214C1.79951 19.214 1.84926 19.1978 1.88243 19.214C2.1146 19.3113 2.34677 19.3923 2.56236 19.4895C2.69503 19.5543 2.79453 19.6678 2.91062 19.7326C3.22571 19.8946 3.4413 20.1377 3.65689 20.4132C3.95539 20.7697 4.18757 21.1748 4.38657 21.58C4.40316 21.5962 4.40316 21.6124 4.43632 21.6448C4.46949 21.5637 4.45291 21.4989 4.43632 21.4341C4.30365 20.8183 4.23732 20.1863 4.17098 19.5381C4.1544 19.4085 4.13782 19.3923 4.00515 19.3599C3.12621 19.133 2.54578 18.5497 2.18093 17.7394C1.94876 17.2046 1.84926 16.6213 1.81609 16.0217C1.81609 15.9569 1.83267 15.9083 1.83267 15.811C1.94876 15.8759 2.04826 15.9083 2.13118 15.9569C2.76136 16.3296 3.24229 16.8481 3.57397 17.4963C3.75639 17.869 3.92223 18.258 4.03831 18.6631C4.03831 18.6793 4.0549 18.6955 4.08806 18.7441C4.10465 18.6955 4.12123 18.6631 4.12123 18.6307C4.12123 18.3714 4.10465 18.1283 4.10465 17.869C4.10465 17.8204 4.08806 17.7556 4.07148 17.707C3.77297 16.9454 3.69005 16.1675 3.85589 15.3735C3.98856 14.6929 4.27049 14.0933 4.68508 13.5424C4.70166 13.5099 4.73483 13.4775 4.768 13.4451C4.768 13.4451 4.78458 13.4289 4.81775 13.4289C4.83433 13.4775 4.8675 13.5424 4.88408 13.591C5.01675 14.385 5.04992 15.179 4.967 15.9731C4.91725 16.1513 4.88408 16.3458 4.81775 16.524C4.6685 16.9454 4.55241 17.3667 4.43632 17.788C4.41974 17.8528 4.40316 17.9177 4.40316 17.9987C4.40316 18.1931 4.41974 18.4038 4.41974 18.5983C4.41974 18.6307 4.43632 18.6631 4.43632 18.7117C4.45291 18.6955 4.48607 18.6793 4.48607 18.6793C4.53583 18.3876 4.6685 18.1283 4.78458 17.869C4.98359 17.4477 5.26551 17.0912 5.63035 16.8157C5.76302 16.7185 5.89569 16.6375 6.02836 16.5727C6.22737 16.4754 6.42637 16.362 6.64196 16.3296C6.67513 16.3296 6.72488 16.3134 6.75805 16.3134C6.84097 16.3134 6.87413 16.3458 6.84097 16.4268C6.7083 16.7995 6.55904 17.1722 6.39321 17.545C6.12787 18.1283 5.71327 18.6145 5.18259 18.9872C4.98359 19.133 4.80117 19.2465 4.58558 19.3275C4.48607 19.3761 4.46949 19.4085 4.46949 19.5057C4.53583 19.9595 4.58558 20.4132 4.65191 20.8669C4.68508 21.0614 4.71825 21.2397 4.75141 21.4341C4.768 21.4827 4.768 21.5313 4.78458 21.5962C4.8675 21.5475 4.85092 21.4827 4.8675 21.4179C4.88408 21.1262 4.93384 20.8507 5.03334 20.5915C5.11626 20.3808 5.18259 20.1539 5.31526 19.9757C5.64694 19.5381 6.06153 19.1492 6.60879 18.971C6.65855 18.9548 6.7083 18.9386 6.79121 18.9062C6.79121 18.9872 6.79121 19.052 6.77463 19.1168C6.67513 19.8298 6.47612 20.4942 6.0947 21.11C5.82936 21.5475 5.46452 21.8392 5.06651 22.1147C4.95042 22.1957 4.93384 22.1957 4.967 22.3578C5.04992 22.6495 5.13284 22.9412 5.21576 23.2328C5.34843 23.6218 5.4811 24.0107 5.61377 24.3996C5.63035 24.432 5.63035 24.4482 5.6801 24.4806C5.6801 24.4482 5.69669 24.4158 5.69669 24.3834C5.69669 24.1889 5.6801 23.9945 5.69669 23.8C5.71327 23.2653 5.86253 22.7629 6.1942 22.3416C6.44296 22.0337 6.75805 21.8068 7.08972 21.6124C7.10631 21.5962 7.13947 21.5962 7.18923 21.5962C7.18923 21.6286 7.20581 21.661 7.20581 21.6934C7.22239 22.2768 7.15606 22.8601 7.0068 23.4273C6.85755 24.0269 6.49271 24.4968 6.06153 24.9181C6.02836 24.9506 5.9952 24.9668 5.97861 24.9992C5.89569 25.064 5.89569 25.1288 5.94544 25.2098C6.22737 25.777 6.52588 26.3442 6.8078 26.9113C6.82438 26.96 6.85755 26.9924 6.9073 27.0572C6.94047 26.9762 6.92389 26.9113 6.9073 26.8465C6.77463 26.3118 6.75805 25.777 6.92389 25.2422C7.10631 24.6751 7.45457 24.2537 7.91891 23.9134C8.01841 23.9297 8.01841 23.9945 8.035 24.0593C8.1345 24.594 8.16767 25.145 8.10133 25.696C8.01841 26.328 7.76966 26.8951 7.35506 27.3813C7.17264 27.6081 7.18923 27.5595 7.3219 27.754C7.67015 28.2725 8.05158 28.7749 8.41642 29.2772C8.43301 29.3097 8.46617 29.3421 8.51592 29.3745C8.54909 29.3097 8.51592 29.261 8.49934 29.2286C8.30034 28.7587 8.20083 28.2563 8.234 27.7378C8.28375 27.2192 8.48276 26.7655 8.83102 26.3604C8.89735 26.2956 8.96369 26.2307 9.03002 26.1659C9.0466 26.1497 9.06319 26.1497 9.11294 26.1173C9.14611 26.1983 9.17928 26.2631 9.21244 26.3442C9.34511 26.7169 9.42803 27.0896 9.47778 27.4623C9.52753 27.8998 9.51095 28.3536 9.39486 28.7911C9.29536 29.1314 9.16269 29.4393 8.98027 29.731C8.91393 29.812 8.9471 29.8768 8.99685 29.9416C9.29536 30.2495 9.57728 30.5736 9.87579 30.8815C10.0582 31.076 10.2738 31.2542 10.4728 31.4487C10.4894 31.4487 10.4894 31.4325 10.506 31.4325C10.4728 31.3839 10.4562 31.3353 10.4231 31.2866C10.1909 30.9139 10.025 30.5412 9.95871 30.1199C9.90896 29.812 9.90896 29.5041 9.9753 29.2124C10.0416 28.8721 10.1743 28.5642 10.3733 28.2725C10.3899 28.2401 10.4065 28.2077 10.4396 28.1915C10.506 28.1105 10.5557 28.1105 10.6055 28.2077C10.6718 28.3374 10.7547 28.467 10.8045 28.6128C11.0201 29.0828 11.1693 29.5527 11.2191 30.0713C11.2522 30.4116 11.2191 30.7357 11.1527 31.076C11.103 31.3353 11.0035 31.5783 10.9206 31.8376C11.0367 32.0321 12.4131 33.0692 12.8775 33.296C12.8443 33.2474 12.8277 33.215 12.8111 33.1826C12.5458 32.8747 12.3136 32.5344 12.1643 32.1617C11.9985 31.7404 11.9488 31.3191 12.0317 30.8653C12.0814 30.606 12.1478 30.363 12.2639 30.1199C12.2804 30.0713 12.3302 30.0227 12.3799 29.9578C12.5458 30.1847 12.695 30.3792 12.8277 30.5898C13.1096 31.0436 13.3418 31.5297 13.4247 32.0483C13.491 32.4696 13.491 32.9071 13.4081 33.3285C13.4081 33.3447 13.3915 33.3609 13.3915 33.3771C13.3418 33.6039 13.3418 33.6039 13.5408 33.7174C14.1046 34.0577 14.6851 34.3494 15.2821 34.6248C15.2987 34.641 15.3318 34.6248 15.3982 34.641C15.3318 34.5762 15.2821 34.5438 15.2489 34.5114C14.8841 34.1873 14.569 33.8308 14.37 33.3933C14.1378 32.8909 14.1046 32.3562 14.2207 31.8214C14.2539 31.708 14.2373 31.5783 14.3534 31.4811C14.3866 31.4973 14.4197 31.5135 14.4529 31.5297C14.967 32.0159 15.3982 32.5506 15.6801 33.1988C15.8791 33.6688 15.9454 34.1711 15.9289 34.6735C15.9289 34.7059 15.9289 34.7545 15.9289 34.7869C15.9123 34.8679 15.962 34.9165 16.0284 34.9489C16.36 35.0624 16.6751 35.2082 17.0068 35.3054C17.4546 35.4513 17.9189 35.5971 18.3833 35.7106C18.7647 35.8078 19.1627 35.8888 19.5441 35.9698C19.7763 36.0184 20.0085 36.0671 20.2572 36.0347C20.5226 35.986 20.7879 35.9374 21.0532 35.8726C21.4844 35.7754 21.9156 35.6619 22.3302 35.5323C22.8111 35.3865 23.2755 35.2244 23.7398 35.0624C23.8227 35.03 23.9056 34.9975 24.0051 34.9651C24.171 34.9003 24.1876 34.9003 24.1544 34.7059C24.1212 34.3818 24.171 34.0739 24.2207 33.766C24.2871 33.3771 24.4529 33.0044 24.6685 32.6641C24.9338 32.2589 25.2323 31.8862 25.5806 31.5621C25.6138 31.5297 25.6469 31.4973 25.7133 31.4649C25.7464 31.5297 25.7796 31.5783 25.7962 31.6269C25.8791 31.9024 25.9123 32.1941 25.8957 32.4858C25.8791 33.0368 25.6967 33.5391 25.3318 33.9604C25.166 34.1711 24.967 34.3494 24.7846 34.5276C24.7514 34.56 24.7017 34.5924 24.6685 34.6248C24.6685 34.641 24.6851 34.641 24.6851 34.6572C24.7182 34.6572 24.7348 34.6572 24.768 34.641C25.3484 34.3331 25.9454 34.0253 26.5259 33.7174C26.7083 33.6201 26.7083 33.6039 26.6751 33.4257C26.4595 32.4696 26.642 31.5621 27.1561 30.7357C27.2887 30.5088 27.4546 30.2981 27.6038 30.0713C27.6204 30.0389 27.6536 30.0227 27.6867 29.9741C27.7199 30.0227 27.7697 30.0713 27.7862 30.1199C28.2008 31.0112 28.1345 31.8862 27.6038 32.6965C27.4711 32.8909 27.3385 33.0692 27.1892 33.2474C27.4048 33.215 28.9637 32.0483 29.1461 31.789C28.9471 31.3677 28.8476 30.9139 28.8144 30.444C28.7979 29.893 28.9139 29.3745 29.1295 28.8721C29.2124 28.6453 29.3285 28.4346 29.4446 28.2239C29.511 28.0943 29.5441 28.0943 29.627 28.2077C29.826 28.4832 29.9753 28.7911 30.0582 29.1314C30.108 29.3259 30.1245 29.5041 30.1245 29.6986C30.1411 30.1685 30.0085 30.5898 29.7929 30.995C29.7265 31.1408 29.627 31.2866 29.5607 31.4487C30.1245 30.9625 30.6386 30.4278 31.1362 29.8606C31.0532 29.7148 30.9703 29.5689 30.904 29.4069C30.5889 28.7587 30.4894 28.0781 30.6055 27.3489C30.6552 26.9924 30.7547 26.6521 30.8542 26.3118C30.8708 26.2469 30.904 26.1821 30.9372 26.1011C31.0035 26.1497 31.0367 26.1821 31.0864 26.2145C31.5508 26.7169 31.8161 27.3003 31.7995 27.9971C31.7995 28.4184 31.6834 28.8235 31.5342 29.2124C31.5176 29.261 31.501 29.3097 31.4844 29.3421C31.501 29.3421 31.501 29.3583 31.5176 29.3583C31.6171 29.2448 31.7 29.1314 31.7995 29.018C32.1146 28.5642 32.4297 28.1105 32.7614 27.6568C32.8277 27.5757 32.8111 27.5109 32.7448 27.4461C32.4131 27.0734 32.1809 26.6359 32.0317 26.1659C31.9156 25.8094 31.899 25.4367 31.899 25.0478C31.899 24.7075 31.9322 24.3834 31.9985 24.0431C32.0151 23.9945 32.0483 23.9297 32.0648 23.8648C32.3799 24.0755 32.6121 24.3024 32.7945 24.5778C33.176 25.145 33.292 25.7608 33.1925 26.4252C33.176 26.571 33.1428 26.7169 33.1096 26.8627C33.1096 26.9113 33.1096 26.9437 33.1262 27.0086C33.2091 26.8789 33.292 26.7493 33.3584 26.6197C33.6071 26.1335 33.8393 25.6636 34.0715 25.1774C34.1378 25.0478 34.1212 25.0478 34.0217 24.9344C33.5906 24.5616 33.2589 24.1079 33.0599 23.5731C32.977 23.3625 32.9106 23.1356 32.894 22.9087C32.894 22.8763 32.894 22.8277 32.8775 22.7953C32.7448 22.4064 32.7945 22.0013 32.7945 21.5962C32.7945 21.58 32.8111 21.5475 32.8111 21.5151C32.977 21.5475 33.1096 21.6286 33.2257 21.7258C33.4247 21.904 33.6071 22.0985 33.7896 22.293C33.8559 22.3578 33.8891 22.4388 33.9388 22.5198C34.2705 23.0384 34.37 23.6056 34.3202 24.2051C34.3202 24.2862 34.3037 24.3672 34.3534 24.4644C34.4197 24.3186 34.4695 24.1565 34.5192 24.0107C34.6187 23.7028 34.7017 23.3949 34.8177 23.1032C34.9338 22.8439 34.9338 22.5684 35.0333 22.3092C35.0665 22.2281 35.0333 22.1633 34.9504 22.1147C34.4529 21.8068 34.0383 21.4017 33.7564 20.8993C33.7066 20.8183 33.6735 20.7211 33.6403 20.6239C33.6071 20.5428 33.5906 20.4618 33.5574 20.397C33.4247 20.1863 33.375 19.9433 33.3086 19.7002C33.2589 19.4571 33.2257 19.2303 33.1925 18.9872C33.1925 18.9548 33.1925 18.9386 33.1925 18.89C33.2423 18.89 33.2755 18.8737 33.3086 18.89C33.6403 19.0196 33.9554 19.1654 34.2207 19.4085C34.3368 19.5057 34.4197 19.6354 34.5192 19.7488C34.6353 19.8947 34.7514 20.0405 34.8343 20.2025C35.0168 20.559 35.0997 20.9642 35.1494 21.3693C35.1494 21.4341 35.166 21.4827 35.1826 21.5475C35.1992 21.5475 35.1992 21.5475 35.2158 21.5475C35.2323 21.5151 35.2489 21.4827 35.2655 21.4503C35.3153 21.1262 35.365 20.8021 35.4314 20.478C35.4479 20.4294 35.4645 20.3808 35.4645 20.3322C35.4811 20.2836 35.4977 20.2187 35.4977 20.1701C35.5143 19.9433 35.5309 19.7164 35.5474 19.4733C35.5474 19.3923 35.5143 19.3437 35.4479 19.3113C35.2655 19.2303 35.0831 19.133 34.9007 19.0358C34.4032 18.7279 34.0217 18.3228 33.7398 17.8204C33.4911 17.3991 33.3252 16.9454 33.176 16.4754C33.1594 16.443 33.1594 16.4106 33.1594 16.3782C33.1594 16.362 33.1594 16.3458 33.176 16.3134C33.2257 16.3134 33.2755 16.3134 33.3252 16.3134C34.0715 16.4754 34.6851 16.8643 35.0831 17.5287C35.2821 17.8528 35.4148 18.2093 35.4977 18.5821C35.5143 18.6307 35.5309 18.6793 35.5309 18.7279C35.5474 18.7279 35.5474 18.7279 35.564 18.7279C35.5806 18.6793 35.5972 18.6469 35.5972 18.5983C35.6138 18.3876 35.6138 18.1769 35.6138 17.9501C35.6138 17.8366 35.5806 17.7394 35.5474 17.626C35.1328 16.6375 34.967 15.6166 35.0499 14.5471C35.0665 14.223 35.1163 13.8989 35.1494 13.5748C35.1494 13.5099 35.1826 13.4451 35.2158 13.3479C35.2821 13.4289 35.3153 13.4775 35.3484 13.5262C35.6801 13.9961 35.9289 14.4984 36.0947 15.0494C36.2937 15.7786 36.2937 16.524 36.0947 17.2533C36.0615 17.3991 35.9952 17.545 35.962 17.6908C35.9454 17.7556 35.9289 17.8204 35.9289 17.869C35.9289 18.1121 35.9123 18.3714 35.9123 18.6145C35.9123 18.6469 35.9289 18.6793 35.9289 18.7117C35.9454 18.7117 35.9454 18.7117 35.962 18.7117C35.9952 18.5983 36.0449 18.501 36.0781 18.3876C36.244 17.9015 36.443 17.4315 36.7415 16.994C37.0731 16.5078 37.5043 16.1351 38.0184 15.8596C38.0516 15.8434 38.0847 15.8272 38.1345 15.811C38.1511 15.811 38.1677 15.811 38.2008 15.811C38.2008 15.8759 38.2174 15.9245 38.2174 15.9731C38.1843 16.2486 38.1677 16.5078 38.1179 16.7833C38.035 17.2046 37.9023 17.626 37.6867 17.9987C37.3219 18.6631 36.7746 19.1168 36.0284 19.3113C35.8791 19.3437 35.8791 19.3599 35.8459 19.5219C35.8128 19.7812 35.8128 20.0567 35.7299 20.2998C35.7133 20.3484 35.7133 20.397 35.7133 20.4618C35.6967 20.7859 35.6469 21.11 35.5806 21.4179C35.564 21.4827 35.564 21.5313 35.564 21.5962C35.5972 21.5962 35.5972 21.5962 35.5972 21.5962C35.7464 21.3369 35.8957 21.0938 36.0449 20.8345C36.3269 20.3646 36.6917 19.9757 37.1395 19.6516C37.4546 19.4409 37.7862 19.2789 38.1345 19.1654C38.1677 19.1492 38.2008 19.1654 38.2672 19.1492C38.2672 19.214 38.2672 19.2789 38.2506 19.3437C38.2174 19.4733 38.1677 19.6192 38.1179 19.7488C38.0516 19.9433 38.0018 20.1539 37.9189 20.3484C37.7697 20.6887 37.5872 20.9966 37.3551 21.2721C37.2556 21.3855 37.1561 21.5151 37.0068 21.58C36.9736 21.5962 36.9571 21.6124 36.9405 21.6286C36.6088 21.9365 36.2108 22.0985 35.7464 22.1471C35.7299 22.1471 35.6967 22.1471 35.6801 22.1633C35.4977 22.1957 35.3484 22.2444 35.3484 22.455C35.1992 22.7305 35.1992 23.0384 35.0997 23.3139C34.9504 23.719 34.8177 24.1241 34.6685 24.5292C34.6685 24.5454 34.6685 24.5616 34.6851 24.594C34.7182 24.5454 34.768 24.4968 34.8012 24.4482C35.1328 23.9945 35.4977 23.5894 35.962 23.249C36.3269 22.9736 36.7249 22.7791 37.1726 22.6819C37.3385 22.6333 37.5209 22.6333 37.7199 22.6171C37.7199 22.6657 37.7199 22.6981 37.7033 22.7467C37.5872 23.1356 37.3882 23.4759 37.1561 23.8C36.9902 24.0431 36.7912 24.27 36.559 24.4806C35.9952 24.9506 35.365 25.1774 34.6187 25.1288C34.4363 25.1126 34.4363 25.1288 34.3534 25.2909C34.0715 25.8418 33.8061 26.3928 33.5242 26.9437C33.491 27.0086 33.4579 27.0896 33.4081 27.1706C33.5076 27.1382 33.5574 27.0734 33.6071 27.0248C34.0051 26.6359 34.4197 26.2956 34.9173 26.0525C35.4479 25.777 36.0118 25.6636 36.6088 25.6798C36.6585 25.6798 36.7083 25.696 36.7912 25.7122C36.7249 25.8256 36.6751 25.9066 36.6254 25.9877C36.2937 26.49 35.9123 26.9275 35.4148 27.2678C34.8343 27.673 34.171 27.8188 33.4745 27.7378C33.4247 27.7378 33.3584 27.7216 33.3086 27.7054C33.1262 27.6568 33.1262 27.6568 33.0101 27.8188C32.7945 28.1429 32.5624 28.467 32.3468 28.7911C32.1975 29.0018 32.0317 29.2124 31.8658 29.4231C31.8327 29.4717 31.7995 29.5041 31.7829 29.5689C31.8658 29.5203 31.9322 29.4717 32.0151 29.4069C32.4297 29.1152 32.8609 28.8559 33.3418 28.6939C33.9554 28.4832 34.569 28.4346 35.1992 28.5642C35.2323 28.5642 35.2489 28.5804 35.2987 28.5966C35.2821 28.6291 35.2821 28.6615 35.2489 28.6939C34.8012 29.2286 34.2871 29.6824 33.6403 29.9741C32.9272 30.2981 32.2141 30.2981 31.501 30.0227C31.4678 30.0065 31.4513 30.0065 31.4181 29.9903C30.8874 30.525 30.3567 31.076 29.8095 31.6431C29.8758 31.6269 29.909 31.6107 29.9421 31.5945C30.3567 31.3839 30.7713 31.2056 31.2191 31.076C31.7498 30.9301 32.297 30.9139 32.8277 31.0274C32.9604 31.0598 33.0765 31.076 33.1925 31.1246C33.2755 31.1408 33.3418 31.1894 33.4247 31.2218C33.3915 31.2704 33.375 31.3028 33.3418 31.3353C32.8775 31.7404 32.3799 32.0645 31.7995 32.2751C30.9869 32.5506 30.2075 32.502 29.4612 32.0645C29.428 32.0483 29.3949 32.0321 29.3783 32.0159C28.7149 32.502 28.0682 33.0044 27.4048 33.4905C27.4546 33.5229 27.5043 33.4905 27.5541 33.4743C28.1345 33.2798 28.7149 33.1502 29.3119 33.1664C29.8758 33.1826 30.4065 33.3122 30.904 33.5877C30.9537 33.6039 30.9703 33.6525 31.0201 33.685C30.8045 33.847 30.6055 33.9442 30.3899 34.0577C29.8924 34.3007 29.3783 34.4628 28.8144 34.4952C28.3998 34.5276 28.0018 34.4466 27.6204 34.2845C27.3882 34.1873 27.1726 34.0577 26.9736 33.8794C26.9073 33.8146 26.841 33.8146 26.758 33.8632C26.2274 34.1549 25.6967 34.4304 25.1826 34.7059C25.0831 34.7545 24.9836 34.8031 24.8841 34.8517C24.8841 34.8679 24.8841 34.8841 24.9007 34.9003C24.9836 34.9003 25.0665 34.9003 25.1494 34.8841C25.6469 34.8031 26.1444 34.7707 26.642 34.8355C27.2887 34.9003 27.8857 35.1596 28.3998 35.5485C28.4164 35.5647 28.4164 35.5809 28.4496 35.6133C28.4164 35.6457 28.3833 35.6781 28.3501 35.6944C27.9521 35.8564 27.5375 36.0022 27.1229 36.0671C26.8907 36.0995 26.642 36.1319 26.4098 36.1319C25.6138 36.1157 24.9504 35.824 24.4197 35.2406C24.3202 35.1434 24.3202 35.1434 24.1876 35.192C23.574 35.4027 22.9438 35.6295 22.3302 35.824C22.0151 35.9212 21.6834 35.986 21.3517 36.0671C21.3186 36.0833 21.2854 36.0833 21.2357 36.0995C21.2854 36.1319 21.302 36.1481 21.3352 36.1643C21.3849 36.1805 21.4347 36.1805 21.4844 36.1805C22.3634 36.2291 23.2257 36.2777 24.1046 36.2129C24.171 36.2129 24.2373 36.2129 24.3037 36.2129C24.37 36.2291 24.4363 36.2777 24.4363 36.3588C24.4363 36.4398 24.37 36.4884 24.3037 36.4884C24.171 36.5046 24.0383 36.5208 23.9056 36.5208C23.3086 36.5532 22.7116 36.5532 22.098 36.5046C21.7498 36.4722 21.4015 36.456 21.0532 36.4236C20.8045 36.4074 20.5391 36.375 20.2904 36.3263C20.0914 36.2939 19.8924 36.3425 19.6934 36.3588C19.4114 36.3912 19.1295 36.4398 18.8476 36.456C18.035 36.5208 17.2224 36.5532 16.3932 36.5208C16.2605 36.5208 16.1113 36.5046 15.9786 36.4884C15.9454 36.4884 15.8957 36.4884 15.8791 36.4722C15.8294 36.4398 15.7796 36.3912 15.7796 36.3425C15.763 36.2777 15.8294 36.2291 15.8791 36.2129C15.9454 36.1967 16.0118 36.1967 16.0947 36.1967C16.9736 36.2615 17.8526 36.2129 18.7315 36.1643C18.7978 36.1643 18.8808 36.1481 18.9471 36.0995C18.9305 36.0833 18.9139 36.0671 18.8808 36.0671C17.8857 35.8564 16.9073 35.5323 15.962 35.1596C15.8625 35.1272 15.8128 35.1434 15.763 35.2082C15.0831 35.9536 14.2373 36.1967 13.2423 36.0671C12.6619 36.0671 12.1975 35.9374 11.7498 35.743C11.7 35.7268 11.6668 35.6944 11.6005 35.6457C11.7 35.5647 11.7829 35.4999 11.8658 35.4351C12.5292 34.9813 13.292 34.8031 14.0881 34.8355C14.3534 34.8517 14.6353 34.8841 14.9007 34.9165C14.9836 34.9327 15.0665 34.9327 15.1494 34.9489C15.1494 34.9327 15.166 34.9165 15.166 34.9165C15.1328 34.9003 15.0997 34.8679 15.0665 34.8517C14.4695 34.5762 13.8891 34.2683 13.3252 33.928C13.176 33.8308 13.176 33.847 13.0433 33.9442C12.5458 34.3494 11.9653 34.5438 11.3186 34.5438C10.9537 34.5438 10.5889 34.4628 10.2406 34.3331C9.87579 34.2035 9.51095 34.0415 9.17928 33.8308C9.12952 33.7984 9.07977 33.766 9.03002 33.7174C9.06319 33.685 9.07977 33.6363 9.11294 33.6201C9.44461 33.4419 9.79287 33.3122 10.1577 33.2474C10.6221 33.1502 11.103 33.1664 11.5673 33.2636C11.8824 33.3284 12.1809 33.4257 12.496 33.5067C12.5458 33.5229 12.5955 33.5229 12.6453 33.5229C11.9985 33.0368 11.3352 32.5506 10.6718 32.0483C10.5391 32.1131 10.3899 32.2103 10.2241 32.2751C9.62704 32.5182 9.01344 32.5344 8.39984 32.3562C7.76966 32.1617 7.22239 31.8052 6.72488 31.3839C6.69171 31.3515 6.67513 31.319 6.62538 31.2542C6.77463 31.2056 6.9073 31.1408 7.03997 31.1084C7.67015 30.9625 8.28375 30.9625 8.91393 31.1408C9.34511 31.2542 9.74312 31.4325 10.1411 31.6431C10.1743 31.6594 10.2075 31.6594 10.2738 31.6918C9.72654 31.1246 9.19586 30.5898 8.66518 30.0551C8.54909 30.0875 8.43301 30.1361 8.31692 30.1847C7.50432 30.4116 6.75805 30.2819 6.04495 29.8444C5.59719 29.5689 5.21576 29.2286 4.88408 28.8397C4.81775 28.7749 4.78458 28.7425 4.73483 28.6615Z" fill="#D6B294" stroke="#D6B294" stroke-width="0.1" stroke-miterlimit="10"/>
</g>
<defs>
<clipPath id="clip0">
<rect width="36.6667" height="33.3333" fill="white" transform="translate(1.66675 3.33331)"/>
</clipPath>
</defs>
</svg>
